# xmcd
#
# Track frame offsets:
#	150
#	15663
#	28292
#	48173
#	65104
#	82198
#	98498
#	118859
#	139924
#	156189
#	175255
#	190782
#	203352
#	223191
#	240090
#	257240
#	273592
#	294026
#	315122
#	331387
#
# Disc length: 4672 seconds
#
# Revision: 1
# Processed by: cddbd v1.5.2PL0 Copyright (c) Steve Scherf et al.
# Submitted via: audiograbber 1.83.01
#
DISCID=19123e14
DTITLE=Gauchinhos de Deus - Minutos Depois
DYEAR=1900
DGENRE=Gospel
TTITLE0=Dia de Sol
TTITLE1=A verdade e a mentira
TTITLE2=Minutos Depois
TTITLE3=Foi a mão de Deus
TTITLE4=Promessas
TTITLE5=Lá vem Ele
TTITLE6=Dependente
TTITLE7=Com Ele
TTITLE8=Casa Reformada
TTITLE9=Chega
TTITLE10=Dia de Sol (instrumental)
TTITLE11=A verdade e a mentira  (instrumental)
TTITLE12=Minutos Depois  (instrumental)
TTITLE13=Foi a mão de Deus  (instrumental)
TTITLE14=Promessas  (instrumental)
TTITLE15=La vem Ele  (instrumental)
TTITLE16=Dependente  (instrumental)
TTITLE17=Com Ele  (instrumental)
TTITLE18=Casa Reformada  (instrumental)
TTITLE19=Chega  (instrumental)
EXTD=
EXTT0=
EXTT1=
EXTT2=
EXTT3=
EXTT4=
EXTT5=
EXTT6=
EXTT7=
EXTT8=
EXTT9=
EXTT10=
EXTT11=
EXTT12=
EXTT13=
EXTT14=
EXTT15=
EXTT16=
EXTT17=
EXTT18=
EXTT19=
PLAYORDER=
